<?xml version="1.0" encoding="UTF-8" standalone="no"?>
<svg
   xmlns:dc="http://purl.org/dc/elements/1.1/"
   xmlns:cc="http://creativecommons.org/ns#"
   xmlns:rdf="http://www.w3.org/1999/02/22-rdf-syntax-ns#"
   xmlns:svg="http://www.w3.org/2000/svg"
   xmlns="http://www.w3.org/2000/svg"
   xmlns:sodipodi="http://sodipodi.sourceforge.net/DTD/sodipodi-0.dtd"
   xmlns:inkscape="http://www.inkscape.org/namespaces/inkscape"
   viewBox="0 0 1097.7 1043.26"
   version="1.1"
   id="svg52"
   sodipodi:docname="Christian_Data_Journalism.svg"
   inkscape:version="1.0.1 (3bc2e813f5, 2020-09-07)">
  <metadata
     id="metadata56">
    <rdf:RDF>
      <cc:Work
         rdf:about="">
        <dc:format>image/svg+xml</dc:format>
        <dc:type
           rdf:resource="http://purl.org/dc/dcmitype/StillImage" />
      </cc:Work>
    </rdf:RDF>
  </metadata>
  <sodipodi:namedview
     pagecolor="#ffffff"
     bordercolor="#666666"
     borderopacity="1"
     objecttolerance="10"
     gridtolerance="10"
     guidetolerance="10"
     inkscape:pageopacity="0"
     inkscape:pageshadow="2"
     inkscape:window-width="1600"
     inkscape:window-height="847"
     id="namedview54"
     showgrid="false"
     showguides="true"
     inkscape:guide-bbox="true"
     inkscape:zoom="1.8435773"
     inkscape:cx="868.08876"
     inkscape:cy="778.95615"
     inkscape:window-x="-8"
     inkscape:window-y="-8"
     inkscape:window-maximized="1"
     inkscape:current-layer="Objects"
     inkscape:document-rotation="0">
    <sodipodi:guide
       position="156.48901,234.7335"
       orientation="0,-1"
       id="guide881" />
    <sodipodi:guide
       position="480.5874,542.06052"
       orientation="0,-1"
       id="guide883" />
    <sodipodi:guide
       position="548.93281,654.34221"
       orientation="1,0"
       id="guide885" />
  </sodipodi:namedview>
  <defs
     id="defs4">
    <style
       id="style2">.cls-1{fill:blue;}.cls-1,.cls-2,.cls-4,.cls-7{opacity:0.5;}.cls-1,.cls-2,.cls-3,.cls-4,.cls-5,.cls-6,.cls-7{isolation:isolate;}.cls-2{fill:red;}.cls-3{fill:#f0f;}.cls-3,.cls-5,.cls-6{opacity:0.2;}.cls-4{fill:green;}.cls-5{fill:aqua;}.cls-6{fill:#ff0;}.cls-7{fill:#fff;}.cls-8{font-size:31.99px;font-family:Helvetica-Bold, Helvetica;font-weight:700;}.cls-9{letter-spacing:-0.07em;}</style>
  </defs>
  <g
     id="Layer_2"
     data-name="Layer 2">
    <g
       id="Objects">
      <path
         class="cls-1"
         d="M548.85,459.33a332.67,332.67,0,0,1,322.46-63.21,333.44,333.44,0,0,0,6.17-63.95C877.48,148.72,728.77,0,545.32,0S213.15,148.72,213.15,332.17a333.45,333.45,0,0,0,6.62,66.27,332.54,332.54,0,0,1,329.08,60.89Z"
         id="path6" />
      <path
         class="cls-2"
         d="M433.36,711.09a333.62,333.62,0,0,1,6.18-64C328.34,609.8,243.41,515.24,219.77,398.44,91.64,444.51,0,567.09,0,711.09c0,183.45,148.72,332.17,332.17,332.17a330.9,330.9,0,0,0,216.68-80.41A331.43,331.43,0,0,1,433.36,711.09Z"
         id="path8" />
      <path
         class="cls-3"
         d="M439.54,647.13a331.85,331.85,0,0,1,109.31-187.8,332.54,332.54,0,0,0-329.08-60.89C243.41,515.24,328.34,609.8,439.54,647.13Z"
         id="path10" />
      <path
         class="cls-4"
         d="M871.31,396.12c-22.54,115.53-104.93,209.63-213.59,248.7a332.67,332.67,0,0,1-108.87,318,330.9,330.9,0,0,0,216.68,80.41c183.45,0,332.17-148.72,332.17-332.17C1097.7,564.62,1002.9,440.3,871.31,396.12Z"
         id="path12" />
      <path
         class="cls-5"
         d="M548.85,459.33A331.9,331.9,0,0,1,657.72,644.82c108.66-39.07,191-133.17,213.59-248.7a332.67,332.67,0,0,0-322.46,63.21Z"
         id="path14" />
      <path
         class="cls-6"
         d="M664.34,711.09a334,334,0,0,0-6.62-66.27,333.52,333.52,0,0,1-218.18,2.31A332.49,332.49,0,0,0,548.85,962.85,331.43,331.43,0,0,0,664.34,711.09Z"
         id="path16" />
      <path
         class="cls-7"
         d="M548.85,459.33a331.85,331.85,0,0,0-109.31,187.8,333.52,333.52,0,0,0,218.18-2.31A331.9,331.9,0,0,0,548.85,459.33Z"
         id="path18" />
      <text
         class="cls-8"
         transform="translate(464.63 269.97)"
         id="text20">Christianity</text>
      <text
         class="cls-8"
         id="text22"
         x="122.45532"
         y="808.88251">Journalism</text>
      <text
         class="cls-8"
         transform="translate(785.58,775.13)"
         id="text28"><tspan
           x="0"
           y="0">Information</tspan>
           <tspan
           x="0"
           y="39.987499">Technology</tspan></text>
      <text
         class="cls-8"
         transform="translate(310.79 496.01)"
         id="text32">Christian <tspan
   x="-11.57"
   y="33"
   id="tspan30">Journalism</tspan></text>
      <text
         class="cls-8"
         transform="translate(645.95,509.82)"
         id="text38">FaithTech</text>
      <text
         class="cls-8"
         transform="translate(478.85 561.32)"
         id="text44">Christian <tspan
   x="34.65"
   y="32"
   id="tspan40">Data </tspan><tspan
   x="-11.57"
   y="64"
   id="tspan42">Journalism</tspan></text>
      <text
         class="cls-8"
         transform="translate(513.5 775.13)"
         id="text48">Data <tspan
   x="-46.22"
   y="33"
   id="tspan46">Journalism</tspan></text>
    </g>
  </g>
</svg>
